<svg width="27" height="35" viewBox="0 0 27 35" fill="none" xmlns="http://www.w3.org/2000/svg">
<path d="M22.9688 0C24.6777 0 26.25 1.57227 26.25 3.28125V31.7188C26.25 33.4961 24.6777 35 22.9688 35H3.28125C1.50391 35 0 33.4961 0 31.7188V3.28125C0 1.57227 1.50391 0 3.28125 0H22.9688ZM4.375 14.2188V16.4062C4.375 17.0215 4.85352 17.5 5.46875 17.5H7.65625C8.20312 17.5 8.75 17.0215 8.75 16.4062V14.2188C8.75 13.6719 8.20312 13.125 7.65625 13.125H5.46875C4.85352 13.125 4.375 13.6719 4.375 14.2188ZM4.375 20.7812V22.9688C4.375 23.584 4.85352 24.0625 5.46875 24.0625H7.65625C8.20312 24.0625 8.75 23.584 8.75 22.9688V20.7812C8.75 20.2344 8.20312 19.6875 7.65625 19.6875H5.46875C4.85352 19.6875 4.375 20.2344 4.375 20.7812ZM15.3125 29.5312V27.3438C15.3125 26.7969 14.7656 26.25 14.2188 26.25H5.46875C4.85352 26.25 4.375 26.7969 4.375 27.3438V29.5312C4.375 30.1465 4.85352 30.625 5.46875 30.625H14.2188C14.7656 30.625 15.3125 30.1465 15.3125 29.5312ZM15.3125 22.9688V20.7812C15.3125 20.2344 14.7656 19.6875 14.2188 19.6875H12.0312C11.416 19.6875 10.9375 20.2344 10.9375 20.7812V22.9688C10.9375 23.584 11.416 24.0625 12.0312 24.0625H14.2188C14.7656 24.0625 15.3125 23.584 15.3125 22.9688ZM15.3125 16.4062V14.2188C15.3125 13.6719 14.7656 13.125 14.2188 13.125H12.0312C11.416 13.125 10.9375 13.6719 10.9375 14.2188V16.4062C10.9375 17.0215 11.416 17.5 12.0312 17.5H14.2188C14.7656 17.5 15.3125 17.0215 15.3125 16.4062ZM21.875 29.5312V27.3438C21.875 26.7969 21.3281 26.25 20.7812 26.25H18.5938C17.9785 26.25 17.5 26.7969 17.5 27.3438V29.5312C17.5 30.1465 17.9785 30.625 18.5938 30.625H20.7812C21.3281 30.625 21.875 30.1465 21.875 29.5312ZM21.875 22.9688V20.7812C21.875 20.2344 21.3281 19.6875 20.7812 19.6875H18.5938C17.9785 19.6875 17.5 20.2344 17.5 20.7812V22.9688C17.5 23.584 17.9785 24.0625 18.5938 24.0625H20.7812C21.3281 24.0625 21.875 23.584 21.875 22.9688ZM21.875 16.4062V14.2188C21.875 13.6719 21.3281 13.125 20.7812 13.125H18.5938C17.9785 13.125 17.5 13.6719 17.5 14.2188V16.4062C17.5 17.0215 17.9785 17.5 18.5938 17.5H20.7812C21.3281 17.5 21.875 17.0215 21.875 16.4062ZM21.875 9.84375V5.46875C21.875 4.92188 21.3281 4.375 20.7812 4.375H5.46875C4.85352 4.375 4.375 4.92188 4.375 5.46875V9.84375C4.375 10.459 4.85352 10.9375 5.46875 10.9375H20.7812C21.3281 10.9375 21.875 10.459 21.875 9.84375Z" fill="white"/>
</svg>
