<svg width="35" height="27" viewBox="0 0 35 27" fill="none" xmlns="http://www.w3.org/2000/svg">
<path d="M31.7188 0C33.4961 0 35 1.50391 35 3.28125C35 4.375 34.4531 5.33203 33.6328 5.94727L18.7988 17.0898C17.9785 17.7051 16.9531 17.7051 16.1328 17.0898L1.29883 5.94727C0.478516 5.33203 0 4.375 0 3.28125C0 1.50391 1.43555 0 3.28125 0H31.7188ZM14.834 18.8672C16.4062 20.0293 18.5254 20.0293 20.0977 18.8672L35 7.65625V21.875C35 24.3359 33.0176 26.25 30.625 26.25H4.375C1.91406 26.25 0 24.3359 0 21.875V7.65625L14.834 18.8672Z" fill="#657ED4"/>
</svg>
