<svg width="18" height="18" viewBox="0 0 18 18" fill="none" xmlns="http://www.w3.org/2000/svg">
<path d="M16.25 0H1.21094C0.546875 0 0 0.585938 0 1.28906V16.25C0 16.9531 0.546875 17.5 1.21094 17.5H16.25C16.9141 17.5 17.5 16.9531 17.5 16.25V1.28906C17.5 0.585938 16.9141 0 16.25 0ZM5.27344 15H2.69531V6.67969H5.27344V15ZM3.98438 5.50781C3.125 5.50781 2.46094 4.84375 2.46094 4.02344C2.46094 3.20312 3.125 2.5 3.98438 2.5C4.80469 2.5 5.46875 3.20312 5.46875 4.02344C5.46875 4.84375 4.80469 5.50781 3.98438 5.50781ZM15 15H12.3828V10.9375C12.3828 10 12.3828 8.75 11.0547 8.75C9.6875 8.75 9.49219 9.80469 9.49219 10.8984V15H6.91406V6.67969H9.375V7.8125H9.41406C9.76562 7.14844 10.625 6.44531 11.875 6.44531C14.4922 6.44531 15 8.20312 15 10.4297V15Z" fill="#657ED4"/>
</svg>
