<svg width="20" height="35" viewBox="0 0 20 35" fill="none" xmlns="http://www.w3.org/2000/svg">
<path d="M19.6875 9.84375C19.6875 15.3125 15.2441 19.6875 9.84375 19.6875C4.375 19.6875 0 15.3125 0 9.84375C0 4.44336 4.375 0 9.84375 0C15.2441 0 19.6875 4.44336 19.6875 9.84375ZM10.9375 4.375C10.9375 3.82812 10.3906 3.28125 9.84375 3.28125C6.15234 3.28125 3.28125 6.2207 3.28125 9.84375C3.28125 10.459 3.75977 10.9375 4.375 10.9375C4.92188 10.9375 5.46875 10.459 5.46875 9.84375C5.46875 7.45117 7.38281 5.46875 9.84375 5.46875C10.3906 5.46875 10.9375 4.99023 10.9375 4.375ZM7.65625 32.8125V21.7383C8.33984 21.8066 9.0918 21.875 9.84375 21.875C10.5273 21.875 11.2793 21.8066 12.0312 21.7383V32.8125C12.0312 34.043 11.0059 35 9.84375 35C8.61328 35 7.65625 34.043 7.65625 32.8125Z" fill="#657ED4"/>
</svg>
