<svg width="31" height="31" viewBox="0 0 31 31" fill="none" xmlns="http://www.w3.org/2000/svg">
<path d="M26.25 0C28.6426 0 30.625 1.98242 30.625 4.375V26.25C30.625 28.7109 28.6426 30.625 26.25 30.625H4.375C1.91406 30.625 0 28.7109 0 26.25V4.375C0 1.98242 1.91406 0 4.375 0H26.25ZM23.9941 19.8242C24.1309 19.3457 23.8574 18.7988 23.3789 18.5938L19.6875 17.0215C19.209 16.8164 18.7305 16.9531 18.457 17.2949L16.9531 19.1406C14.5605 17.9785 12.6465 16.0645 11.4844 13.6719L13.3301 12.168C13.6719 11.8945 13.8086 11.416 13.6035 10.9375L12.0312 7.24609C11.8262 6.76758 11.2793 6.49414 10.8008 6.63086L7.38281 7.38281C6.9043 7.51953 6.5625 7.92969 6.5625 8.47656C6.5625 17.0898 13.5352 24.0625 22.1484 24.0625C22.6953 24.0625 23.1055 23.7891 23.1738 23.2422L23.9941 19.8242Z" fill="#657ED4"/>
</svg>
