<svg width="38" height="35" viewBox="0 0 38 35" fill="none" xmlns="http://www.w3.org/2000/svg">
<path d="M18.5938 1.16211C18.5938 0.546875 19.0039 0 19.6875 0C28.0957 0 35 6.9043 35 15.3125C35 15.9277 34.4531 16.4062 33.8379 16.4062H18.5938V1.16211ZM0 18.5938C0 10.3223 6.15234 3.48633 14.082 2.39258C14.7656 2.25586 15.3125 2.80273 15.3125 3.41797V19.6875L25.9766 30.4199C26.4551 30.8984 26.3867 31.6504 25.9082 31.9922C23.1738 33.9062 19.8926 35 16.4062 35C7.31445 35 0 27.6855 0 18.5938ZM35.957 19.6875C36.5723 19.6875 37.1191 20.2344 36.9824 20.8496C36.5039 24.6777 34.6582 28.0957 31.9238 30.625C31.5137 30.9668 30.8984 30.9668 30.4883 30.5566L19.6875 19.6875H35.957Z" fill="white"/>
</svg>
