<svg width="35" height="35" viewBox="0 0 35 35" fill="none" xmlns="http://www.w3.org/2000/svg">
<path d="M17.5 0C27.1387 0 35 7.86133 35 17.5C35 27.207 27.1387 35 17.5 35C7.79297 35 0 27.207 0 17.5C0 7.86133 7.79297 0 17.5 0ZM23.8574 23.9258L21.4648 18.8672C23.0371 17.9102 24.0625 16.2012 24.0625 14.2871C24.0625 11.2109 21.6016 8.81836 18.5938 8.81836L12.5781 8.75C11.6211 8.75 10.9375 9.50195 10.9375 10.3906V24.6094C10.9375 25.5664 11.6211 26.25 12.5781 26.25C13.4668 26.25 14.2188 25.5664 14.2188 24.6094V19.6875H18.252L20.918 25.3613C21.1914 25.9082 21.8066 26.25 22.4219 26.25C22.627 26.25 22.832 26.25 23.1055 26.1133C23.9258 25.7715 24.2676 24.7461 23.8574 23.9258ZM18.5938 12.0312C19.7559 12.0312 20.7812 13.0566 20.7812 14.2188C20.7812 15.4492 19.7559 16.4062 18.5938 16.4062H14.2188V12.0312H18.5938Z" fill="white"/>
</svg>
